<svg id="Layer_1" data-name="Layer 1" xmlns="http://www.w3.org/2000/svg" viewBox="0 0 44.361 38.305">
  <defs>
    <style>
      .cls-1 {
        fill: #1d8fc4;
      }
    </style>
  </defs>
  <title>ico_fireworks</title>
  <g>
    <g>
      <path class="cls-1" d="M35.233,2.462,33.89,1.778,34.124.289A.25.25,0,0,0,33.7.073L32.635,1.14,31.291.456a.25.25,0,0,0-.336.336l.685,1.343L30.575,3.2a.25.25,0,0,0,.216.424l1.489-.237.685,1.343a.25.25,0,0,0,.223.136.256.256,0,0,0,.039,0,.25.25,0,0,0,.208-.208l.234-1.489,1.489-.237a.25.25,0,0,0,.074-.47Z"/>
      <path class="cls-1" d="M4.673,15.181H3.165L2.7,13.747a.249.249,0,0,0-.475,0l-.467,1.434H.25a.25.25,0,0,0-.146.452l1.22.886L.857,17.953a.249.249,0,0,0,.384.279l1.221-.886,1.22.886a.25.25,0,0,0,.384-.279L3.6,16.519l1.22-.886a.25.25,0,0,0-.146-.452Z"/>
      <path class="cls-1" d="M25.9,36.157h-.889l-.275-.846a.259.259,0,0,0-.475,0l-.275.846h-.889a.25.25,0,0,0-.146.452l.719.522-.274.846a.25.25,0,0,0,.384.279l.72-.522.72.522a.25.25,0,0,0,.384-.279l-.274-.846.719-.522a.25.25,0,0,0-.146-.452Z"/>
      <path class="cls-1" d="M9.346,1.663H8.457L8.182.817a.259.259,0,0,0-.475,0l-.275.845H6.543a.25.25,0,0,0-.146.452l.719.523-.274.846a.25.25,0,0,0,.384.279l.72-.522.72.523a.25.25,0,0,0,.384-.279l-.274-.846.719-.523a.25.25,0,0,0-.146-.452Z"/>
      <path class="cls-1" d="M43.481,28.068a.249.249,0,0,0-.237-.173h-.889l-.275-.845a.259.259,0,0,0-.475,0l-.275.845h-.889a.25.25,0,0,0-.146.452l.719.522-.274.846a.25.25,0,0,0,.384.279l.72-.522.72.522a.25.25,0,0,0,.384-.279l-.274-.846.719-.522A.248.248,0,0,0,43.481,28.068Z"/>
    </g>
    <g>
      <path class="cls-1" d="M6.061,37.648a.868.868,0,0,1-.334-.066L1.692,35.914a.874.874,0,0,1-.449-1.2,31.83,31.83,0,0,1,1.9-3.191A29.177,29.177,0,0,1,8.516,25.46a23.108,23.108,0,0,1,6.9-4.032,19.5,19.5,0,0,1,2.5-.736c.609-.141.972-.192.972-.192a.875.875,0,0,1,.423,1.689c-.018.006-.31.114-.791.334a16.6,16.6,0,0,0-2.057,1.091A20.09,20.09,0,0,0,11.324,28.2a24.54,24.54,0,0,0-3.4,5.892A26.911,26.911,0,0,0,6.907,37a.876.876,0,0,1-.846.651Zm-2.8-2.981L5.5,35.6c.178-.543.441-1.289.8-2.163a26.281,26.281,0,0,1,3.647-6.318A20.694,20.694,0,0,1,11.4,25.468,21.036,21.036,0,0,0,9.643,26.8,27.584,27.584,0,0,0,4.6,32.494C4.015,33.373,3.562,34.133,3.259,34.667Z"/>
      <path class="cls-1" d="M42.171,21.492a.882.882,0,0,1-.4-.1c-.008,0-.8-.4-2.024-.888a28.8,28.8,0,0,0-4.787-1.394,29.488,29.488,0,0,0-5.086-.527c-1.386-.017-2.351.06-2.359.061a.864.864,0,0,1-.926-.679.875.875,0,0,1,.544-1.011c.039-.015.974-.367,2.434-.766a32.926,32.926,0,0,1,5.594-.987,33.514,33.514,0,0,1,5.813.029c1.578.151,2.632.353,2.676.362a.874.874,0,0,1,.668,1.123L43,20.88a.875.875,0,0,1-.834.611ZM33.7,17.132c.545.076,1.081.164,1.6.265a30.693,30.693,0,0,1,5.094,1.484c.486.192.907.371,1.245.52l.709-2.245c-.412-.059-.936-.124-1.538-.182a31.7,31.7,0,0,0-5.5-.027C34.787,16.993,34.246,17.055,33.7,17.132Z"/>
      <path class="cls-1" d="M19.454,31.814a.5.5,0,0,1-.065,0l-2.474-.328a.5.5,0,0,1-.418-.622s.146-.561.435-1.367a19.2,19.2,0,0,1,1.276-2.816A17.364,17.364,0,0,1,19.9,24.149a5.754,5.754,0,0,1,1.055-1.017.5.5,0,0,1,.677.72,4.736,4.736,0,0,0-.551,1.01,15.571,15.571,0,0,0-.779,2.6,16.8,16.8,0,0,0-.348,3.829.5.5,0,0,1-.5.521Zm-1.829-1.247,1.323.176a17.479,17.479,0,0,1,.376-3.49c.059-.277.125-.56.2-.841-.152.246-.3.5-.44.751a18.223,18.223,0,0,0-1.208,2.665C17.772,30.111,17.689,30.363,17.625,30.567Z"/>
      <path class="cls-1" d="M19.028,18.6a.883.883,0,0,1-.3-.053,50.455,50.455,0,0,0-6.223-1.761,48.737,48.737,0,0,0-6.274-.876.875.875,0,0,1-.795-1.083l1.045-4.239a.876.876,0,0,1,1.186-.6,53.5,53.5,0,0,1,6.264,3.159,51.742,51.742,0,0,1,5.646,3.9.875.875,0,0,1-.55,1.556ZM7.383,14.252a48.744,48.744,0,0,1,5.481.824c.457.093.912.2,1.356.3-.385-.244-.781-.488-1.184-.724a50.746,50.746,0,0,0-5.1-2.637Z"/>
      <path class="cls-1" d="M24.953,16.639a.876.876,0,0,1-.791-1.25,14.593,14.593,0,0,1,1.467-2.311,20.961,20.961,0,0,1,4.3-4.184,33.989,33.989,0,0,1,5.119-3.062c1.421-.7,2.374-1.113,2.414-1.13a.875.875,0,0,1,1.185.556l1.237,4.187a.874.874,0,0,1-.72,1.115c-.011,0-.969.134-2.367.4a29.445,29.445,0,0,0-4.978,1.366,18.028,18.028,0,0,0-4.474,2.45,13.023,13.023,0,0,0-1.736,1.562A.875.875,0,0,1,24.953,16.639Zm12.3-9.922c-.383.178-.871.409-1.43.685a32.6,32.6,0,0,0-4.857,2.9c-.441.322-.879.672-1.3,1.038.5-.238,1.018-.457,1.531-.651a31.206,31.206,0,0,1,5.272-1.449c.563-.108,1.058-.194,1.454-.26Z"/>
      <path class="cls-1" d="M35.138,36.99a.874.874,0,0,1-.856-.7c0-.009-.2-.97-.662-2.368a27.186,27.186,0,0,0-2.295-5.063,28,28,0,0,0-3.393-4.587c-1.056-1.147-1.864-1.853-1.872-1.86a.875.875,0,0,1,.966-1.443,28.071,28.071,0,0,1,2.468,1.456,31.4,31.4,0,0,1,4.934,4.038A32.012,32.012,0,0,1,38.5,31.572a29.691,29.691,0,0,1,1.514,2.637.875.875,0,0,1-.481,1.2l-4.093,1.522A.873.873,0,0,1,35.138,36.99ZM31.872,26.458c.342.5.665,1.014.962,1.517a29.018,29.018,0,0,1,2.448,5.4c.2.617.357,1.153.471,1.572l2.235-.831c-.236-.424-.561-.98-.963-1.611A30.251,30.251,0,0,0,33.182,27.7C32.768,27.279,32.327,26.863,31.872,26.458Z"/>
      <path class="cls-1" d="M23.878,30.088a.5.5,0,0,1-.49-.6,17.547,17.547,0,0,0,.3-2.733,18.3,18.3,0,0,0-.161-2.849.5.5,0,0,1,.917-.341,19.717,19.717,0,0,1,1.432,2.774,20.356,20.356,0,0,1,.986,3.055.5.5,0,0,1-.471.611l-2.493.084Zm.813-3.955c0,.214,0,.432-.007.65a17.783,17.783,0,0,1-.209,2.285l1.257-.042a18.806,18.806,0,0,0-.783-2.3C24.867,26.523,24.78,26.324,24.691,26.133Z"/>
      <path class="cls-1" d="M21.721,16.583a.875.875,0,0,1-.791-.5,8.056,8.056,0,0,0-.858-1.316,32.491,32.491,0,0,0-2.507-2.809,33.222,33.222,0,0,0-4.078-3.439.874.874,0,0,1-.1-1.358l3.189-2.98a.885.885,0,0,1,.7-.229.875.875,0,0,1,.628.39,38.207,38.207,0,0,1,2.9,5.445,35.518,35.518,0,0,1,1.405,3.89,9.666,9.666,0,0,1,.387,1.983.876.876,0,0,1-.658.9A.886.886,0,0,1,21.721,16.583ZM15.353,7.718a33.638,33.638,0,0,1,3.45,3c.282.281.567.575.849.876-.148-.384-.3-.764-.461-1.131a35.5,35.5,0,0,0-2.2-4.281Z"/>
      <path class="cls-1" d="M35.919,26.29a.509.509,0,0,1-.146-.022.5.5,0,0,1-.312-.28,8.76,8.76,0,0,0-.667-1.181,10.407,10.407,0,0,0-2.118-2.3,10.871,10.871,0,0,0-2.834-1.6,9.894,9.894,0,0,0-1.454-.426.5.5,0,0,1,.06-.991,10.9,10.9,0,0,1,1.713.071,12.624,12.624,0,0,1,3.679,1.028,12.989,12.989,0,0,1,3.3,2.185,11.73,11.73,0,0,1,1.28,1.359.5.5,0,0,1-.126.725l-2.1,1.348A.5.5,0,0,1,35.919,26.29Zm-3.483-5.178c.3.195.593.4.861.613A11.322,11.322,0,0,1,35.63,24.26c.206.313.367.59.487.809l1.15-.738c-.2-.218-.472-.5-.811-.818A12.137,12.137,0,0,0,33.424,21.5C33.106,21.36,32.774,21.229,32.435,21.112Z"/>
      <path class="cls-1" d="M6.069,22.71a.5.5,0,0,1-.454-.291L4.572,20.152a.5.5,0,0,1,.3-.684s.618-.2,1.555-.439a25.8,25.8,0,0,1,3.442-.605,25.246,25.246,0,0,1,4.979-.009.5.5,0,0,1,.02.991,24.306,24.306,0,0,0-4.48,1.194,23.2,23.2,0,0,0-4.042,2.027A.5.5,0,0,1,6.069,22.71Zm-.35-2.456.567,1.233a23.676,23.676,0,0,1,3.741-1.82c.306-.12.615-.23.921-.331-.32.019-.647.046-.976.083A24.816,24.816,0,0,0,6.667,20C6.29,20.094,5.967,20.183,5.72,20.254Z"/>
      <path class="cls-1" d="M24.4,12.081a.5.5,0,0,1-.5-.51,13.348,13.348,0,0,1,.529-3.237,14.234,14.234,0,0,1,1.377-3.127.5.5,0,0,1,.759-.114l1.866,1.656a.5.5,0,0,1-.048.785A11.183,11.183,0,0,0,26.4,9.375a12.191,12.191,0,0,0-1.547,2.417A.5.5,0,0,1,24.4,12.081Zm1.966-5.828a12.708,12.708,0,0,0-.977,2.362c-.065.215-.123.43-.172.641.131-.177.27-.354.417-.524a11.769,11.769,0,0,1,1.678-1.64Z"/>
    </g>
  </g>
</svg>
