<svg id="Layer_1" data-name="Layer 1" xmlns="http://www.w3.org/2000/svg" viewBox="0 0 34.921 45.812">
  <defs>
    <style>
      .cls-1 {
        fill: #1d8fc4;
      }
    </style>
  </defs>
  <title>ico_balloons</title>
  <g>
    <g>
      <path class="cls-1" d="M8.5,26.227c-4.689,0-8.5-4.243-8.5-9.458S3.815,7.31,8.5,7.31s8.5,4.243,8.5,9.459S13.194,26.227,8.5,26.227ZM8.5,9.06c-3.725,0-6.755,3.458-6.755,7.709S4.78,24.477,8.5,24.477s6.755-3.458,6.755-7.709S12.229,9.06,8.5,9.06Z"/>
      <path class="cls-1" d="M10.654,27.557,8.7,25.193a.257.257,0,0,0-.385,0L6.355,27.557a.25.25,0,0,0,.192.409h3.914a.25.25,0,0,0,.192-.409Z"/>
      <path class="cls-1" d="M8.111,45.812a.876.876,0,0,1-.859-.715,9.107,9.107,0,0,1,1-6.191,6.372,6.372,0,0,0,.559-5.426,7.9,7.9,0,0,0-.538-1.195,7.448,7.448,0,0,1-.762-1.893,7.332,7.332,0,0,1,.069-2.706c.03-.2.061-.395.086-.591a.875.875,0,0,1,1.736.226c-.027.21-.06.42-.092.631a5.963,5.963,0,0,0-.089,2.076,6.1,6.1,0,0,0,.605,1.454,9.33,9.33,0,0,1,.652,1.471,8.086,8.086,0,0,1-.642,6.694,7.433,7.433,0,0,0-.868,5.131.875.875,0,0,1-.7,1.02A.893.893,0,0,1,8.111,45.812Z"/>
      <path class="cls-1" d="M11.639,21.369a.5.5,0,0,1-.377-.829,5.781,5.781,0,0,0,1.052-5.734.5.5,0,0,1,.963-.269,6.794,6.794,0,0,1-1.261,6.66A.5.5,0,0,1,11.639,21.369Z"/>
    </g>
    <g>
      <path class="cls-1" d="M26.416,18.918c-4.689,0-8.5-4.243-8.5-9.459S21.727,0,26.416,0s8.5,4.243,8.5,9.459S31.105,18.918,26.416,18.918Zm0-17.167c-3.725,0-6.755,3.458-6.755,7.709s3.03,7.709,6.755,7.709,6.755-3.458,6.755-7.709S30.141,1.75,26.416,1.75Z"/>
      <path class="cls-1" d="M28.565,20.247l-1.957-2.364a.259.259,0,0,0-.385,0l-1.957,2.364a.25.25,0,0,0,.192.41h3.914a.25.25,0,0,0,.192-.41Z"/>
      <path class="cls-1" d="M27.05,35.424a.875.875,0,0,1-.875-.857,23.078,23.078,0,0,1,.329-3.358c.262-1.837.559-3.919.217-5.049a7.236,7.236,0,0,0-.542-1.21,7.3,7.3,0,0,1-.754-1.867,7.334,7.334,0,0,1,.069-2.706c.03-.2.06-.395.086-.591a.875.875,0,0,1,1.736.226c-.027.21-.059.42-.092.631a5.96,5.96,0,0,0-.089,2.076,5.925,5.925,0,0,0,.6,1.424,8.792,8.792,0,0,1,.664,1.511c.453,1.5.142,3.687-.16,5.8a22.245,22.245,0,0,0-.312,3.077.875.875,0,0,1-.857.893Z"/>
      <path class="cls-1" d="M29.55,14.059a.5.5,0,0,1-.377-.829A5.785,5.785,0,0,0,30.225,7.5a.5.5,0,1,1,.963-.268,6.8,6.8,0,0,1-1.261,6.66A.5.5,0,0,1,29.55,14.059Z"/>
    </g>
  </g>
</svg>
