<svg id="Layer_1" data-name="Layer 1" xmlns="http://www.w3.org/2000/svg" viewBox="0 0 49.216 45.488">
  <defs>
    <style>
      .cls-1 {
        fill: #1d8fc4;
      }
    </style>
  </defs>
  <title>ico_bunting</title>
  <g>
    <g>
      <path class="cls-1" d="M13.385,34.672A60.292,60.292,0,0,1,.667,33.426a.875.875,0,0,1,.415-1.7c.26.064,26.149,6.129,45.116-9.585a.875.875,0,0,1,1.117,1.348C36.251,32.654,22.948,34.672,13.385,34.672Z"/>
      <path class="cls-1" d="M27.561,44a.876.876,0,0,1-.7-.351l-7.186-9.616a.876.876,0,0,1,.631-1.4,46.41,46.41,0,0,0,10.039-1.96.875.875,0,0,1,1.106,1.057L28.407,43.349a.876.876,0,0,1-.679.637A.892.892,0,0,1,27.561,44ZM22,34.231l5.17,6.918,2.189-8.358A48.173,48.173,0,0,1,22,34.231Z"/>
      <g>
        <path class="cls-1" d="M9.984,45.488H9.947a.876.876,0,0,1-.77-.534L4.439,33.708A.875.875,0,0,1,5.361,32.5a47.368,47.368,0,0,0,10.222.436.875.875,0,0,1,.849,1.278L10.759,45.02A.875.875,0,0,1,9.984,45.488ZM6.64,34.423l3.432,8.143,4.09-7.79A49.97,49.97,0,0,1,6.64,34.423Z"/>
        <path class="cls-1" d="M6.648,37.2a.5.5,0,0,1-.255-.93L11.1,33.475a.5.5,0,1,1,.51.86L6.9,37.127A.5.5,0,0,1,6.648,37.2Z"/>
        <path class="cls-1" d="M7.831,40a.5.5,0,0,1-.255-.93l7.079-4.193a.5.5,0,1,1,.51.86L8.086,39.934A.5.5,0,0,1,7.831,40Z"/>
        <path class="cls-1" d="M9.007,42.778a.5.5,0,0,1-.255-.93l3.171-1.879a.5.5,0,1,1,.51.86L9.262,42.708A.5.5,0,0,1,9.007,42.778Z"/>
      </g>
      <g>
        <path class="cls-1" d="M44.435,38.357a.875.875,0,0,1-.5-.158l-10-6.993a.875.875,0,0,1,.138-1.513,47.266,47.266,0,0,0,8.883-5.076.875.875,0,0,1,1.4.63l.955,12.166a.874.874,0,0,1-.872.943Zm-8.26-7.717L43.417,35.7l-.688-8.771A50,50,0,0,1,36.175,30.64Z"/>
        <path class="cls-1" d="M37.394,33.059a.5.5,0,0,1-.445-.728l2.5-4.872a.5.5,0,0,1,.891.456l-2.5,4.872A.5.5,0,0,1,37.394,33.059Z"/>
        <path class="cls-1" d="M39.89,34.8a.5.5,0,0,1-.444-.728l3.758-7.32a.5.5,0,1,1,.889.457l-3.758,7.32A.5.5,0,0,1,39.89,34.8Z"/>
        <path class="cls-1" d="M42.363,36.526a.5.5,0,0,1-.445-.728L43.6,32.519a.5.5,0,0,1,.891.457l-1.683,3.278A.5.5,0,0,1,42.363,36.526Z"/>
      </g>
    </g>
    <g>
      <path class="cls-1" d="M14.945,23.361h-2.63l-.813-2.5a.156.156,0,0,0-.285,0l-.813,2.5H7.773a.15.15,0,0,0-.088.271l2.128,1.546L9,27.679a.15.15,0,0,0,.23.168L11.359,26.3l2.128,1.546a.15.15,0,0,0,.231-.168l-.812-2.5,2.127-1.546a.15.15,0,0,0-.088-.271Z"/>
      <path class="cls-1" d="M42,3.317a.149.149,0,0,0-.143-.1H40.464l-.432-1.327a.156.156,0,0,0-.285,0l-.432,1.327H37.922a.15.15,0,0,0-.088.272l1.127.819-.43,1.327a.15.15,0,0,0,.143.2.146.146,0,0,0,.088-.029l1.128-.819,1.129.82a.15.15,0,0,0,.23-.168L40.818,4.3l1.127-.819A.15.15,0,0,0,42,3.317Z"/>
      <path class="cls-1" d="M39.224,40.048H37.829L37.4,38.722a.15.15,0,0,0-.285,0l-.432,1.326H35.287a.15.15,0,0,0-.088.272l1.128.819L35.9,42.465a.15.15,0,0,0,.055.168.151.151,0,0,0,.176,0l1.129-.82,1.128.819a.148.148,0,0,0,.176,0,.15.15,0,0,0,.055-.168l-.431-1.326,1.128-.819a.15.15,0,0,0-.088-.272Z"/>
    </g>
    <g>
      <path class="cls-1" d="M33.723,11.319c-17.854,0-32.054-9.6-32.232-9.723A.875.875,0,0,1,2.482.155C2.7.306,24.74,15.18,48.059,7.242A.875.875,0,0,1,48.623,8.9,46.008,46.008,0,0,1,33.723,11.319Z"/>
      <path class="cls-1" d="M6.221,16.241a.875.875,0,0,1-.874-.844L4.916,3.2a.874.874,0,0,1,1.291-.8,47.268,47.268,0,0,0,9.4,4.042.875.875,0,0,1,.339,1.5L6.8,16.022A.871.871,0,0,1,6.221,16.241Zm.5-11.589.311,8.831,6.593-5.827A49.955,49.955,0,0,1,6.718,4.652Z"/>
      <path class="cls-1" d="M40.954,21.827a.874.874,0,0,1-.724-.383L33.369,11.352a.875.875,0,0,1,.667-1.365A47.271,47.271,0,0,0,44.143,8.4a.875.875,0,0,1,1.085,1.086L41.794,21.2a.875.875,0,0,1-.7.618A.839.839,0,0,1,40.954,21.827ZM35.668,11.62l4.968,7.308,2.476-8.442A50.018,50.018,0,0,1,35.668,11.62Z"/>
      <g>
        <path class="cls-1" d="M23.176,21.1a.905.905,0,0,1-.148-.013.877.877,0,0,1-.693-.622l-3.3-11.543a.875.875,0,0,1,1.087-1.08A46.373,46.373,0,0,0,30.2,9.583a.875.875,0,0,1,.657,1.382l-6.974,9.771A.875.875,0,0,1,23.176,21.1ZM21.148,9.937l2.371,8.3,5.02-7.033A48.15,48.15,0,0,1,21.148,9.937Z"/>
        <path class="cls-1" d="M25.163,16.978a.5.5,0,0,1-.481-.365l-1.958-6.96a.5.5,0,1,1,.963-.271l1.958,6.96a.5.5,0,0,1-.481.635Z"/>
      </g>
    </g>
  </g>
</svg>
